# Blender 4.2.2 LTS
# www.blender.org
mtllib alfombra_1.mtl
o Plane.011
v -1.626540 -0.030492 0.949059
v 1.444756 -0.030492 0.859574
v -1.402826 -0.030492 -0.843338
v 1.616270 -0.039428 -0.962652
v -0.005135 -0.030492 0.949059
v -0.005135 0.109034 -0.962652
v -1.626540 -0.030492 -0.006796
v 1.616270 -0.030492 -0.006796
v -0.005135 0.099068 -0.006796
v -0.815837 -0.070701 -0.962652
v -0.815837 -0.070701 0.949059
v -0.815837 -0.070701 -0.006796
v 0.805567 -0.030492 0.949059
v 0.805567 0.109034 -0.962652
v 0.805567 0.105174 -0.006796
v 1.616270 -0.105238 -0.484724
v -0.005135 -0.030492 -0.484724
v -1.626540 -0.030492 -0.484724
v -0.718895 0.014185 -0.402696
v 0.805567 -0.030492 -0.484724
v -1.626540 0.026571 0.585711
v -1.626540 0.026571 0.356553
v -1.626540 0.030124 0.557342
v -1.626540 0.032596 0.524650
v -1.626540 0.033864 0.489274
v -1.626540 0.033864 0.452989
v -1.626540 0.032596 0.417613
v -1.626540 0.030124 0.384922
v 1.616270 0.026571 0.356553
v 1.616270 0.026571 0.585711
v 1.616270 0.030124 0.384922
v 1.616270 0.032596 0.417613
v 1.616270 0.033864 0.452989
v 1.616270 0.033864 0.489274
v 1.616270 0.032596 0.524650
v 1.616270 0.030124 0.557342
v -0.005135 0.026571 0.356553
v -0.005135 0.026571 0.585711
v -0.005135 0.030124 0.384922
v -0.005135 0.032596 0.417613
v -0.005135 0.033864 0.452989
v -0.005135 0.033864 0.489274
v -0.005135 0.032596 0.524650
v -0.005135 0.030124 0.557342
v -0.815837 -0.013638 0.585711
v -0.815837 0.100972 0.356553
v -0.815837 -0.010085 0.557342
v -0.815837 -0.007613 0.524650
v -0.815837 -0.006345 0.489274
v -0.815837 -0.006345 0.452989
v -0.815837 -0.007613 0.417613
v -0.815837 -0.010085 0.384922
v 0.693711 0.026571 0.503682
v 0.693711 0.026571 0.274524
v 0.693711 0.030124 0.475313
v 0.693711 0.032596 0.442621
v 0.693711 0.033864 0.407246
v 0.693711 0.033864 0.370961
v 0.693711 0.032596 0.335585
v 0.693711 0.030124 0.302893
v -1.631473 -0.053181 0.943630
v 1.444680 -0.053290 0.854060
v -1.402288 -0.053570 -0.840063
v 1.603215 -0.061059 -0.969732
v -0.003029 -0.053321 0.943892
v -0.001019 0.086433 -0.968828
v -1.625130 -0.053525 -0.003150
v 1.606049 -0.053071 -0.003754
v -0.001710 0.075953 -0.004754
v -0.811147 -0.093821 -0.962144
v -0.815837 -0.093508 0.943602
v -0.811748 -0.093692 -0.003460
v 0.805155 -0.053337 0.943853
v 0.799239 0.087063 -0.971192
v 0.800191 0.082141 -0.004799
v 1.603155 -0.127609 -0.484634
v -0.000687 -0.053625 -0.484963
v -1.625901 -0.053721 -0.484838
v -0.713975 -0.008927 -0.402720
v 0.798824 -0.053499 -0.484785
v -1.631491 0.003802 0.580822
v -1.624546 0.005002 0.345964
v -1.631526 0.007189 0.553842
v -1.631552 0.009543 0.522696
v -1.631563 0.010763 0.488645
v -1.631563 0.010763 0.453619
v -1.631552 0.009543 0.419567
v -1.629146 0.010142 0.370376
v 1.612164 0.003462 0.358224
v 1.616803 0.003688 0.580773
v 1.615389 0.007064 0.388365
v 1.615784 0.009417 0.419514
v 1.616123 0.010638 0.453562
v 1.616447 0.010640 0.488580
v 1.616790 0.009425 0.522616
v 1.617192 0.007081 0.553736
v -0.003432 0.004037 0.349651
v -0.003196 0.003684 0.580926
v -0.003234 0.007245 0.380073
v -0.002310 0.009456 0.419532
v -0.002528 0.010671 0.453582
v -0.002742 0.010667 0.488602
v -0.002974 0.009445 0.522642
v -0.003253 0.007091 0.553770
v -0.815837 -0.036525 0.580785
v -0.813136 0.079841 0.344744
v -0.815837 -0.033140 0.553810
v -0.815837 -0.030790 0.522680
v -0.815837 -0.029571 0.488639
v -0.815837 -0.029571 0.453624
v -0.815837 -0.030790 0.419584
v -0.815837 -0.030285 0.370756
v 0.693401 0.003659 0.498948
v 0.691649 0.003374 0.273548
v 0.693574 0.007059 0.471882
v 0.693636 0.009415 0.440731
v 0.693690 0.010637 0.406682
v 0.693742 0.010640 0.371664
v 0.693797 0.009424 0.337629
v 0.693862 0.007078 0.306512
vn 0.1334 0.9690 0.2082
vn -0.0849 0.9946 0.0603
vn 0.0075 0.9903 0.1387
vn 0.0007 0.9876 0.1568
vn 0.0758 0.9960 0.0464
vn -0.0053 0.9957 -0.0927
vn -0.0489 0.9867 0.1550
vn -0.0000 0.9599 0.2802
vn -0.0036 0.9636 -0.2674
vn -0.0072 0.9954 0.0959
vn -0.0849 0.9946 -0.0603
vn 0.1257 0.9689 -0.2133
vn -0.0201 0.9537 -0.3002
vn 0.0085 0.9732 0.2296
vn -0.0582 0.9891 -0.1350
vn -0.0146 0.9921 -0.1243
vn -0.0089 0.9971 -0.0754
vn -0.0042 0.9993 -0.0358
vn -0.0000 1.0000 -0.0000
vn 0.0042 0.9993 0.0358
vn 0.0089 0.9971 0.0754
vn 0.0146 0.9921 0.1243
vn -0.0098 0.4667 0.8843
vn 0.0494 0.9959 -0.0753
vn 0.0495 0.9981 -0.0358
vn 0.0495 0.9988 -0.0000
vn 0.0495 0.9981 0.0358
vn 0.0494 0.9959 0.0753
vn 0.0492 0.9910 0.1241
vn 0.0110 0.9922 -0.1243
vn 0.0067 0.9971 -0.0754
vn 0.0032 0.9994 -0.0358
vn -0.0032 0.9994 0.0358
vn -0.0067 0.9971 0.0754
vn -0.0110 0.9922 0.1243
vn 0.0098 0.4667 0.8843
vn -0.0494 0.9959 -0.0753
vn -0.0495 0.9981 -0.0358
vn -0.0495 0.9988 -0.0000
vn -0.0495 0.9981 0.0358
vn -0.0494 0.9959 0.0753
vn -0.0492 0.9910 0.1241
vn 0.0489 0.9867 0.1550
vn -0.1337 -0.9692 -0.2067
vn 0.0850 -0.9945 -0.0605
vn -0.0076 -0.9903 -0.1387
vn -0.0008 -0.9876 -0.1568
vn -0.0756 -0.9960 -0.0467
vn 0.0055 -0.9957 0.0930
vn 0.0488 -0.9867 -0.1550
vn 0.0001 -0.9606 -0.2778
vn 0.0038 -0.9639 0.2662
vn 0.0072 -0.9955 -0.0948
vn 0.0849 -0.9946 0.0602
vn -0.1261 -0.9690 0.2125
vn 0.0205 -0.9486 0.3157
vn -0.0083 -0.9724 -0.2330
vn 0.0569 -0.9881 0.1432
vn 0.0110 -0.9941 0.1080
vn 0.0070 -0.9979 0.0643
vn 0.0042 -0.9994 0.0357
vn -0.0001 -1.0000 -0.0001
vn -0.0043 -0.9993 -0.0359
vn -0.0089 -0.9971 -0.0755
vn -0.0147 -0.9921 -0.1246
vn 0.0087 -0.4334 -0.9011
vn -0.0495 -0.9987 -0.0125
vn -0.0494 -0.9981 0.0357
vn -0.0494 -0.9988 -0.0000
vn -0.0494 -0.9981 -0.0357
vn -0.0492 -0.9960 -0.0752
vn -0.0490 -0.9910 -0.1244
vn -0.0104 -0.9932 0.1159
vn -0.0067 -0.9971 0.0753
vn -0.0032 -0.9994 0.0358
vn -0.0000 -1.0000 -0.0000
vn 0.0032 -0.9994 -0.0358
vn 0.0067 -0.9971 -0.0753
vn 0.0111 -0.9922 -0.1245
vn -0.0033 -0.4667 -0.8844
vn 0.0477 -0.9987 0.0188
vn 0.0494 -0.9981 0.0358
vn 0.0494 -0.9988 0.0001
vn 0.0494 -0.9981 -0.0356
vn 0.0493 -0.9960 -0.0750
vn 0.0491 -0.9910 -0.1244
vn -0.0488 -0.9867 -0.1550
vn 0.1352 -0.2279 0.9642
vn 0.8622 -0.5018 -0.0689
vn -0.2064 -0.1030 -0.9730
vn 0.0110 -0.2263 0.9740
vn -0.0015 0.3136 -0.9496
vn -0.9990 -0.0442 0.0008
vn -0.0301 0.1172 -0.9926
vn -0.0114 -0.2315 0.9728
vn -0.0000 -0.2215 0.9752
vn 0.0585 0.3136 -0.9478
vn 0.8874 -0.4559 0.0683
vn -0.8460 -0.0577 -0.5301
vn -0.9923 0.0743 -0.0987
vn -0.9824 0.1836 -0.0331
vn -0.9772 0.2121 -0.0077
vn -0.9772 0.2125 -0.0000
vn -0.9772 0.2121 0.0077
vn -0.9774 0.2106 0.0163
vn -0.9778 0.2077 0.0267
vn 0.9929 -0.1118 -0.0410
vn 0.9995 -0.0300 -0.0039
vn 0.9999 -0.0139 -0.0044
vn 1.0000 0.0007 -0.0046
vn 0.9999 0.0153 -0.0044
vn 0.9995 0.0317 -0.0039
vn 0.9995 0.0297 0.0107
vn -0.9782 0.2054 0.0323
vn -0.9968 -0.0782 0.0135
vn 0.9546 -0.2954 0.0382
vn 0.8519 -0.1087 0.5124
vt 0.750000 0.750000
vt 1.000000 0.750000
vt 1.000000 1.000000
vt 0.750000 1.000000
vt 0.250000 0.750000
vt 0.500000 0.750000
vt 0.500000 1.000000
vt 0.250000 1.000000
vt 0.500000 0.000000
vt 0.750000 0.000000
vt 0.750000 0.190065
vt 0.500000 0.190065
vt 1.000000 0.000000
vt 1.000000 0.190065
vt 0.750000 0.309935
vt 1.000000 0.309935
vt 1.000000 0.500000
vt 0.750000 0.500000
vt 0.000000 0.750000
vt 0.000000 1.000000
vt 0.250000 0.000000
vt 0.250000 0.190065
vt 0.500000 0.500000
vt 0.000000 0.500000
vt 0.250000 0.500000
vt 0.000000 0.309935
vt 0.250000 0.309935
vt 0.500000 0.309935
vt 0.500000 0.295205
vt 0.750000 0.295205
vt 0.500000 0.278425
vt 0.750000 0.278425
vt 0.500000 0.260437
vt 0.750000 0.260437
vt 0.500000 0.239563
vt 0.750000 0.239563
vt 0.500000 0.221575
vt 0.750000 0.221575
vt 0.500000 0.204795
vt 0.750000 0.204795
vt 0.000000 0.295205
vt 0.250000 0.295205
vt 0.000000 0.278425
vt 0.250000 0.278425
vt 0.000000 0.260437
vt 0.250000 0.260437
vt 0.000000 0.239563
vt 0.250000 0.239563
vt 0.000000 0.221575
vt 0.250000 0.221575
vt 0.000000 0.204795
vt 0.250000 0.204795
vt 0.000000 0.190065
vt 1.000000 0.295205
vt 1.000000 0.278425
vt 1.000000 0.260437
vt 1.000000 0.239563
vt 1.000000 0.221575
vt 1.000000 0.204795
vt 0.000000 0.000000
s 0
usemtl Alfombra.001
f 20/1/1 16/2/1 4/3/1 14/4/1
f 19/5/2 17/6/2 6/7/2 10/8/2
f 5/9/3 13/10/3 53/11/3 38/12/3
f 13/10/4 2/13/4 30/14/4 53/11/4
f 54/15/5 29/16/5 8/17/5 15/18/5
f 18/19/6 19/5/6 10/8/6 3/20/6
f 11/21/7 5/9/7 38/12/7 45/22/7
f 17/6/8 20/1/8 14/4/8 6/7/8
f 9/23/9 15/18/9 20/1/9 17/6/9
f 7/24/10 12/25/10 19/5/10 18/19/10
f 12/25/11 9/23/11 17/6/11 19/5/11
f 15/18/12 8/17/12 16/2/12 20/1/12
f 22/26/13 46/27/13 12/25/13 7/24/13
f 37/28/14 54/15/14 15/18/14 9/23/14
f 46/27/15 37/28/15 9/23/15 12/25/15
f 54/15/16 37/28/16 39/29/16 60/30/16
f 60/30/17 39/29/17 40/31/17 59/32/17
f 59/32/18 40/31/18 41/33/18 58/34/18
f 58/34/19 41/33/19 42/35/19 57/36/19
f 57/36/20 42/35/20 43/37/20 56/38/20
f 56/38/21 43/37/21 44/39/21 55/40/21
f 55/40/22 44/39/22 38/12/22 53/11/22
f 46/27/23 22/26/23 28/41/23 52/42/23
f 52/42/24 28/41/24 27/43/24 51/44/24
f 51/44/25 27/43/25 26/45/25 50/46/25
f 50/46/26 26/45/26 25/47/26 49/48/26
f 49/48/27 25/47/27 24/49/27 48/50/27
f 48/50/28 24/49/28 23/51/28 47/52/28
f 47/52/29 23/51/29 21/53/29 45/22/29
f 29/16/30 54/15/30 60/30/30 31/54/30
f 31/54/31 60/30/31 59/32/31 32/55/31
f 32/55/32 59/32/32 58/34/32 33/56/32
f 33/56/19 58/34/19 57/36/19 34/57/19
f 34/57/33 57/36/33 56/38/33 35/58/33
f 35/58/34 56/38/34 55/40/34 36/59/34
f 36/59/35 55/40/35 53/11/35 30/14/35
f 37/28/36 46/27/36 52/42/36 39/29/36
f 39/29/37 52/42/37 51/44/37 40/31/37
f 40/31/38 51/44/38 50/46/38 41/33/38
f 41/33/39 50/46/39 49/48/39 42/35/39
f 42/35/40 49/48/40 48/50/40 43/37/40
f 43/37/41 48/50/41 47/52/41 44/39/41
f 44/39/42 47/52/42 45/22/42 38/12/42
f 1/60/43 11/21/43 45/22/43 21/53/43
f 80/1/44 74/4/44 64/3/44 76/2/44
f 79/5/45 70/8/45 66/7/45 77/6/45
f 65/9/46 98/12/46 113/11/46 73/10/46
f 73/10/47 113/11/47 90/14/47 62/13/47
f 114/15/48 75/18/48 68/17/48 89/16/48
f 78/19/49 63/20/49 70/8/49 79/5/49
f 71/21/50 105/22/50 98/12/50 65/9/50
f 77/6/51 66/7/51 74/4/51 80/1/51
f 69/23/52 77/6/52 80/1/52 75/18/52
f 67/24/53 78/19/53 79/5/53 72/25/53
f 72/25/54 79/5/54 77/6/54 69/23/54
f 75/18/55 80/1/55 76/2/55 68/17/55
f 82/26/56 67/24/56 72/25/56 106/27/56
f 97/28/57 69/23/57 75/18/57 114/15/57
f 106/27/58 72/25/58 69/23/58 97/28/58
f 114/15/59 120/30/59 99/29/59 97/28/59
f 120/30/60 119/32/60 100/31/60 99/29/60
f 119/32/61 118/34/61 101/33/61 100/31/61
f 118/34/62 117/36/62 102/35/62 101/33/62
f 117/36/63 116/38/63 103/37/63 102/35/63
f 116/38/64 115/40/64 104/39/64 103/37/64
f 115/40/65 113/11/65 98/12/65 104/39/65
f 106/27/66 112/42/66 88/41/66 82/26/66
f 112/42/67 111/44/67 87/43/67 88/41/67
f 111/44/68 110/46/68 86/45/68 87/43/68
f 110/46/69 109/48/69 85/47/69 86/45/69
f 109/48/70 108/50/70 84/49/70 85/47/70
f 108/50/71 107/52/71 83/51/71 84/49/71
f 107/52/72 105/22/72 81/53/72 83/51/72
f 89/16/73 91/54/73 120/30/73 114/15/73
f 91/54/74 92/55/74 119/32/74 120/30/74
f 92/55/75 93/56/75 118/34/75 119/32/75
f 93/56/76 94/57/76 117/36/76 118/34/76
f 94/57/77 95/58/77 116/38/77 117/36/77
f 95/58/78 96/59/78 115/40/78 116/38/78
f 96/59/79 90/14/79 113/11/79 115/40/79
f 97/28/80 99/29/80 112/42/80 106/27/80
f 99/29/81 100/31/81 111/44/81 112/42/81
f 100/31/82 101/33/82 110/46/82 111/44/82
f 101/33/83 102/35/83 109/48/83 110/46/83
f 102/35/84 103/37/84 108/50/84 109/48/84
f 103/37/85 104/39/85 107/52/85 108/50/85
f 104/39/86 98/12/86 105/22/86 107/52/86
f 61/60/87 81/53/87 105/22/87 71/21/87
f 2/13/88 13/10/88 73/10/88 62/13/88
f 4/3/89 16/2/89 76/2/89 64/3/89
f 3/20/90 10/8/90 70/8/90 63/20/90
f 5/9/91 11/21/91 71/21/91 65/9/91
f 6/7/92 14/4/92 74/4/92 66/7/92
f 7/24/93 18/19/93 78/19/93 67/24/93
f 10/8/94 6/7/94 66/7/94 70/8/94
f 11/21/95 1/60/95 61/60/95 71/21/95
f 13/10/96 5/9/96 65/9/96 73/10/96
f 14/4/97 4/3/97 64/3/97 74/4/97
f 16/2/98 8/17/98 68/17/98 76/2/98
f 18/19/99 3/20/99 63/20/99 78/19/99
f 28/41/100 22/26/100 82/26/100 88/41/100
f 27/43/101 28/41/101 88/41/101 87/43/101
f 26/45/102 27/43/102 87/43/102 86/45/102
f 25/47/103 26/45/103 86/45/103 85/47/103
f 24/49/104 25/47/104 85/47/104 84/49/104
f 23/51/105 24/49/105 84/49/105 83/51/105
f 21/53/106 23/51/106 83/51/106 81/53/106
f 29/16/107 31/54/107 91/54/107 89/16/107
f 31/54/108 32/55/108 92/55/108 91/54/108
f 32/55/109 33/56/109 93/56/109 92/55/109
f 33/56/110 34/57/110 94/57/110 93/56/110
f 34/57/111 35/58/111 95/58/111 94/57/111
f 35/58/112 36/59/112 96/59/112 95/58/112
f 36/59/113 30/14/113 90/14/113 96/59/113
f 1/60/114 21/53/114 81/53/114 61/60/114
f 22/26/115 7/24/115 67/24/115 82/26/115
f 8/17/116 29/16/116 89/16/116 68/17/116
f 30/14/117 2/13/117 62/13/117 90/14/117
