# Blender 3.6.17
# www.blender.org
mtllib alga3.mtl
o Plane.028
v 0.199976 -0.077883 16.176172
v 0.039791 0.010827 15.719290
v 0.063750 0.369983 16.490812
v -0.229578 0.548772 15.685040
v -0.069022 0.709583 16.614498
v -0.362350 0.888372 15.808726
v -0.216896 1.087810 16.752253
v -0.510224 1.266599 15.946480
v -0.392636 1.461621 17.001299
v -0.758280 1.688020 16.057804
v -0.349311 1.974800 17.218395
v -0.798702 2.262525 16.071814
v -0.600746 2.480584 17.185568
v -0.919553 2.636585 16.374264
v -0.591900 2.957096 17.120703
v -0.775876 3.046786 16.652578
v 0.119884 -0.033528 15.947731
v -0.082914 0.459377 16.087927
v -0.391400 0.713861 16.256691
v -0.539273 1.092088 16.394445
v -0.752890 1.497373 16.580723
v -0.759795 2.044255 16.671782
v -0.812195 2.540617 16.795748
v -0.673169 3.142359 16.887451
v 0.437922 -0.021151 16.035189
v 0.118906 0.021153 16.115297
v 0.733247 0.272705 16.330015
v 0.195416 0.219021 16.326565
v 1.002182 0.592231 16.544538
v 0.419679 0.593509 16.718134
v 1.216374 0.869607 16.823547
v 0.622982 0.907582 17.029617
v 1.624659 1.141548 17.166523
v 0.892725 1.151483 17.394287
v 1.754210 1.546504 17.468487
v 1.047238 1.470633 17.639103
v 1.890368 1.869285 17.572914
v 1.194852 1.916911 17.663551
v 1.756624 2.195327 17.533871
v 1.456691 2.215250 17.654421
v 0.265866 -0.028909 16.044518
v 0.464331 0.245863 16.328289
v 0.716719 0.578371 16.670416
v 0.924888 0.881305 16.974094
v 1.241396 1.226208 17.429647
v 1.408545 1.513583 17.600170
v 1.572159 1.899353 17.763229
v 1.610523 2.304949 17.647760
v 0.233117 0.191988 15.778152
v 0.572868 0.072516 16.295706
v 0.395963 0.474394 15.557009
v 0.946099 0.405513 16.202950
v 0.618294 0.791222 15.433966
v 1.141652 0.765265 16.024597
v 0.714401 1.086416 15.186086
v 1.288702 1.035146 15.900527
v 0.876870 1.470353 15.198777
v 1.339047 1.386469 15.717356
v 0.861052 1.887330 15.153233
v 1.356021 1.839644 15.726528
v 1.129879 2.170916 15.032094
v 1.630990 2.253535 15.516747
v 1.373120 2.528978 14.897391
v 1.679717 2.640396 15.051424
v 0.243403 -0.038138 16.149252
v 0.662318 0.440679 15.908393
v 0.964196 0.668266 15.716899
v 1.046833 0.973472 15.524876
v 1.209947 1.336238 15.340416
v 1.193840 1.731724 15.314137
v 1.417516 2.151756 15.160032
v 1.590193 2.693466 14.913556
v 0.011273 0.121710 15.797487
v 0.479195 0.123100 15.799759
v -0.215310 0.547873 15.563713
v 0.596851 0.523873 15.510962
v -0.215310 0.961867 15.447875
v 0.634933 0.934731 15.387512
v -0.298642 1.408166 15.309098
v 0.703774 1.436510 15.238368
v -0.215310 1.814953 14.800589
v 0.596851 1.804865 14.783276
v -0.267109 2.125428 14.301360
v 0.586535 2.094861 14.363177
v -0.242343 2.491491 14.171700
v 0.567023 2.458065 14.193598
v -0.091312 3.017343 14.115553
v 0.474192 2.911243 14.101869
v 0.190770 -0.015454 15.926364
v 0.190770 0.486388 15.428566
v 0.190770 0.893011 15.293668
v 0.190770 1.359744 15.133991
v 0.190770 1.755879 14.637017
v 0.185716 2.046796 14.269274
v 0.168841 2.388355 14.132601
v 0.192315 3.140476 14.162910
v -0.166827 2.766338 14.104100
v 0.520608 2.696574 14.108207
v 0.180578 2.812655 14.161211
v 0.181904 -0.086637 16.180809
v 0.021719 0.002072 15.723926
v 0.048019 0.358752 16.498274
v -0.247910 0.539106 15.685215
v -0.081379 0.697756 16.627625
v -0.381638 0.880771 15.802810
v -0.227938 1.076564 16.767723
v -0.529920 1.260657 15.938523
v -0.405386 1.453006 17.016794
v -0.778898 1.684003 16.052263
v -0.363860 1.968525 17.232666
v -0.819515 2.259384 16.069387
v -0.617204 2.476209 17.197412
v -0.940045 2.634133 16.375391
v -0.609291 2.956748 17.130838
v -0.795335 3.047792 16.657274
v 0.101811 -0.042283 15.952368
v -0.100196 0.448931 16.091900
v -0.408680 0.703413 16.260664
v -0.556886 1.082274 16.398663
v -0.771278 1.489942 16.586269
v -0.778708 2.039353 16.677927
v -0.831106 2.537552 16.802591
v -0.691620 3.142628 16.895161
v 0.441443 -0.034436 16.055796
v 0.122428 0.007868 16.135902
v 0.738388 0.259719 16.350674
v 0.198937 0.205736 16.347172
v 1.008765 0.578944 16.564388
v 0.423205 0.580327 16.738853
v 1.222385 0.855114 16.841955
v 0.626426 0.893637 17.049456
v 1.631357 1.128118 17.186142
v 0.896459 1.137680 17.414263
v 1.763119 1.536656 17.490595
v 1.050864 1.461587 17.662979
v 1.901825 1.864496 17.595951
v 1.196332 1.913346 17.688694
v 1.770034 2.196634 17.555336
v 1.456790 2.215873 17.678823
v 0.269387 -0.042194 16.065125
v 0.468282 0.232649 16.348923
v 0.721732 0.565157 16.690849
v 0.929659 0.866996 16.993200
v 1.246974 1.213432 17.450422
v 1.414672 1.504424 17.623671
v 1.579056 1.896165 17.788195
v 1.618367 2.306008 17.671953
v 0.243460 0.180679 15.767730
v 0.581049 0.061822 16.282244
v 0.404385 0.463098 15.544559
v 0.956468 0.393768 16.193237
v 0.624255 0.781498 15.417702
v 1.156263 0.755619 16.017986
v 0.720048 1.080794 15.166151
v 1.305573 1.028311 15.894492
v 0.881434 1.470292 15.175828
v 1.357740 1.384599 15.710973
v 0.863408 1.885308 15.129967
v 1.374554 1.834306 15.722911
v 1.132137 2.165565 15.010422
v 1.647293 2.245174 15.511633
v 1.377216 2.523410 14.876616
v 1.695185 2.633088 15.043123
v 0.252717 -0.049177 16.137314
v 0.671282 0.429287 15.896598
v 0.974824 0.657808 15.705591
v 1.058538 0.966469 15.510929
v 1.223025 1.334208 15.324724
v 1.205795 1.729695 15.297214
v 1.428570 2.143894 15.146185
v 1.602289 2.686393 14.900121
v 0.003245 0.113766 15.777192
v 0.478053 0.114408 15.779690
v -0.224642 0.543938 15.541119
v 0.596560 0.519246 15.488150
v -0.225284 0.960126 15.424596
v 0.635386 0.933176 15.363516
v -0.308822 1.401902 15.288289
v 0.705560 1.429634 15.217560
v -0.224539 1.803738 14.784260
v 0.599678 1.793262 14.767468
v -0.274912 2.118078 14.280507
v 0.588334 2.087156 14.343015
v -0.247215 2.491689 14.146742
v 0.565410 2.457680 14.168880
v -0.092087 3.020521 14.090508
v 0.467358 2.913837 14.076889
v 0.186380 -0.023920 15.905901
v 0.186029 0.481198 15.405724
v 0.185845 0.891359 15.269205
v 0.186066 1.353077 15.112114
v 0.187539 1.743818 14.620402
v 0.182772 2.038555 14.248622
v 0.165502 2.387788 14.107793
v 0.188896 3.143434 14.137627
v -0.169224 2.768971 14.078871
v 0.515929 2.698697 14.082979
v 0.176752 2.815226 14.135934
vn 0.8769 0.4248 -0.2250
vn 0.8555 0.5135 -0.0672
vn 0.8269 0.5316 -0.1831
vn 0.8865 0.4464 0.1220
vn 0.8908 0.4365 0.1261
vn 0.9126 0.3665 0.1809
vn 0.9123 0.3675 0.1809
vn 0.9725 0.2218 0.0707
vn 0.9649 0.2486 0.0850
vn 0.9891 0.1397 -0.0473
vn 0.9908 0.1278 -0.0443
vn 0.9829 0.0702 -0.1703
vn 0.9363 0.0670 -0.3447
vn 0.9412 -0.1528 -0.3013
vn 0.9125 -0.1298 -0.3879
vn 0.8632 0.1147 -0.4917
vn 0.8823 -0.1096 -0.4577
vn 0.8005 0.2190 -0.5578
vn 0.8009 0.2206 -0.5566
vn 0.7286 0.3638 -0.5804
vn 0.7226 0.3806 -0.5770
vn 0.6398 0.5365 -0.5503
vn 0.6400 0.5357 -0.5508
vn 0.6735 0.5762 -0.4630
vn 0.6730 0.5693 -0.4722
vn 0.7787 0.5585 -0.2859
vn -0.0696 0.7406 -0.6684
vn -0.0933 0.7385 -0.6677
vn -0.0687 0.7342 -0.6754
vn -0.1542 0.7438 -0.6504
vn -0.0731 0.7794 -0.6223
vn -0.1516 0.8057 -0.5726
vn -0.0877 0.7726 -0.6289
vn -0.1830 0.7199 -0.6695
vn -0.0339 0.4502 -0.8923
vn -0.1883 0.4757 -0.8592
vn 0.1242 0.0271 -0.9919
vn -0.0356 0.1252 -0.9915
vn 0.2001 -0.2529 -0.9466
vn -0.5815 -0.2400 -0.7773
vn -0.3656 0.5430 -0.7560
vn -0.3881 0.4646 -0.7959
vn -0.2531 0.7632 -0.5946
vn -0.2228 0.8195 -0.5281
vn -0.2454 0.7545 -0.6086
vn -0.1595 0.7307 -0.6638
vn -0.5129 0.6950 0.5040
vn -0.4769 0.6894 0.5452
vn -0.5412 0.7142 0.4439
vn -0.4969 0.7102 0.4987
vn -0.7070 0.6036 0.3684
vn -0.5644 0.6644 0.4899
vn -0.8108 0.4661 0.3539
vn -0.8064 0.4729 0.3550
vn -0.9112 0.2101 0.3544
vn -0.9009 0.2503 0.3546
vn -0.9386 0.0079 0.3448
vn -0.7881 0.5713 0.2292
vn -0.7771 0.5366 0.3290
vn -0.7804 0.5451 0.3064
vn -0.7595 0.5000 0.4161
vn -0.2917 0.5003 0.8152
vn -0.3179 0.5012 0.8048
vn -0.3680 0.5017 0.7828
vn -0.3134 0.3289 0.8908
vn -0.3355 0.2624 0.9047
vn -0.4196 0.2098 0.8831
vn -0.4291 0.2646 0.8637
vn -0.4300 0.4959 0.7545
vn -0.4255 0.5222 0.7391
vn -0.4059 0.6665 0.6253
vn -0.4790 0.7102 0.5160
vn -0.5453 0.6982 0.4638
vn 0.0339 0.6599 0.7506
vn -0.1204 0.6611 0.7406
vn -0.1793 0.4746 0.8617
vn 0.0469 0.5104 0.8586
vn -0.2255 0.3073 0.9245
vn 0.0597 0.3145 0.9474
vn -0.2295 0.3105 0.9225
vn 0.1604 0.5016 0.8501
vn -0.2700 0.7357 0.6211
vn -0.2675 0.7538 0.6002
vn -0.2673 0.7554 0.5983
vn -0.2644 0.7737 0.5757
vn -0.0594 0.3706 0.9269
vn -0.2296 0.3779 0.8969
vn -0.1221 0.2390 0.9633
vn -0.0283 0.2494 0.9680
vn 0.0071 0.0365 0.9993
vn 0.0562 0.0653 0.9963
vn 0.1914 0.0206 0.9813
vn -0.0154 0.0101 0.9998
vn -0.0754 0.0366 0.9965
vn -0.1639 0.0023 0.9865
vn 0.1493 0.3468 0.9260
vn 0.0610 0.1971 0.9785
vn 0.2888 0.7625 0.5789
vn 0.2809 0.7715 0.5708
vn 0.2518 0.8028 0.5404
vn 0.3499 0.5509 0.7577
vn 0.3628 0.2995 0.8824
vn 0.3107 0.4337 0.8458
vn 0.2238 0.6365 0.7381
vn -0.8770 -0.4244 0.2251
vn -0.8270 -0.5315 0.1831
vn -0.8552 -0.5139 0.0671
vn -0.8772 -0.4244 0.2247
vn -0.8906 -0.4379 -0.1226
vn -0.8866 -0.4470 -0.1190
vn -0.9126 -0.3690 -0.1759
vn -0.9130 -0.3682 -0.1759
vn -0.9650 -0.2494 -0.0812
vn -0.9725 -0.2230 -0.0672
vn -0.9906 -0.1284 0.0466
vn -0.9889 -0.1398 0.0494
vn -0.9363 -0.0672 0.3448
vn -0.9827 -0.0713 0.1710
vn -0.9128 0.1290 0.3876
vn -0.9413 0.1518 0.3014
vn -0.8636 -0.1154 0.4908
vn -0.8826 0.1089 0.4574
vn -0.8018 -0.2187 0.5562
vn -0.8022 -0.2205 0.5549
vn -0.7309 -0.3635 0.5776
vn -0.7251 -0.3803 0.5742
vn -0.6434 -0.5361 0.5465
vn -0.6436 -0.5353 0.5470
vn -0.6755 -0.5756 0.4608
vn -0.6752 -0.5692 0.4691
vn -0.7784 -0.5589 0.2857
vn -0.8769 -0.4245 0.2254
vn 0.0697 -0.7406 0.6684
vn 0.0933 -0.7385 0.6677
vn 0.0696 -0.7406 0.6684
vn 0.1542 -0.7438 0.6504
vn 0.0689 -0.7342 0.6754
vn 0.1518 -0.8055 0.5728
vn 0.0735 -0.7793 0.6223
vn 0.1831 -0.7197 0.6697
vn 0.0878 -0.7725 0.6289
vn 0.1884 -0.4756 0.8592
vn 0.0339 -0.4497 0.8925
vn 0.0373 -0.1253 0.9914
vn -0.1214 -0.0280 0.9922
vn -0.1949 0.2499 0.9484
vn 0.5786 0.2371 0.7804
vn 0.3649 -0.5419 0.7571
vn 0.3871 -0.4623 0.7978
vn 0.2529 -0.7630 0.5948
vn 0.2227 -0.8193 0.5284
vn 0.2453 -0.7545 0.6087
vn 0.1596 -0.7306 0.6638
vn 0.0698 -0.7405 0.6684
vn 0.5131 -0.6948 -0.5039
vn 0.4970 -0.7101 -0.4987
vn 0.5415 -0.7142 -0.4436
vn 0.4772 -0.6893 -0.5452
vn 0.5645 -0.6642 -0.4900
vn 0.7065 -0.6035 -0.3697
vn 0.8051 -0.4733 -0.3575
vn 0.8095 -0.4664 -0.3565
vn 0.8998 -0.2490 -0.3584
vn 0.9099 -0.2090 -0.3583
vn 0.9371 -0.0060 -0.3491
vn 0.7844 -0.5742 -0.2347
vn 0.7774 -0.5471 -0.3104
vn 0.7745 -0.5388 -0.3315
vn 0.7581 -0.5011 -0.4173
vn 0.2982 -0.5030 -0.8112
vn 0.3742 -0.5028 -0.7792
vn 0.3239 -0.5033 -0.8011
vn 0.3209 -0.3294 -0.8880
vn 0.3418 -0.2657 -0.9014
vn 0.4246 -0.2098 -0.8808
vn 0.4333 -0.2648 -0.8615
vn 0.4323 -0.4957 -0.7532
vn 0.4277 -0.5222 -0.7378
vn 0.4071 -0.6662 -0.6249
vn 0.4789 -0.7101 -0.5161
vn 0.5454 -0.6982 -0.4638
vn -0.0343 -0.6592 -0.7512
vn -0.0469 -0.5104 -0.8586
vn 0.1780 -0.4746 -0.8620
vn 0.1197 -0.6605 -0.7413
vn -0.0596 -0.3141 -0.9475
vn 0.2239 -0.3067 -0.9251
vn -0.1599 -0.5013 -0.8503
vn 0.2281 -0.3088 -0.9234
vn 0.2678 -0.7373 -0.6202
vn 0.2655 -0.7558 -0.5985
vn 0.2657 -0.7543 -0.6003
vn 0.2631 -0.7732 -0.5770
vn 0.0591 -0.3726 -0.9261
vn 0.0282 -0.2510 -0.9676
vn 0.1225 -0.2410 -0.9628
vn 0.2289 -0.3795 -0.8964
vn -0.0071 -0.0369 -0.9993
vn 0.0157 -0.0104 -0.9998
vn -0.1923 -0.0208 -0.9811
vn -0.0557 -0.0661 -0.9963
vn 0.0754 -0.0373 -0.9965
vn 0.1646 -0.0027 -0.9864
vn -0.1489 -0.3493 -0.9251
vn -0.0612 -0.1992 -0.9781
vn -0.2871 -0.7626 -0.5796
vn -0.2506 -0.8020 -0.5422
vn -0.2793 -0.7715 -0.5717
vn -0.3481 -0.5510 -0.7584
vn -0.3610 -0.2992 -0.8833
vn -0.3092 -0.4338 -0.8463
vn -0.2230 -0.6360 -0.7388
vn 0.5062 -0.3909 0.7687
vn 0.5751 -0.2148 0.7894
vn 0.5677 -0.2368 0.7884
vn 0.3537 -0.8872 -0.2963
vn -0.0419 0.1267 -0.9911
vn -0.0773 -0.1061 -0.9913
vn -0.0463 0.0992 -0.9940
vn 0.6950 0.0036 0.7190
vn 0.6857 -0.0037 0.7278
vn 0.0961 0.3683 -0.9247
vn 0.0829 0.3638 -0.9278
vn 0.7768 0.0148 0.6295
vn 0.7772 0.0143 0.6291
vn 0.1976 0.3814 -0.9030
vn 0.1979 0.3812 -0.9031
vn 0.7945 -0.1587 0.5861
vn 0.7937 -0.1677 0.5848
vn 0.2007 0.2105 -0.9568
vn 0.1997 0.1993 -0.9594
vn 0.7048 0.0045 0.7094
vn 0.6990 0.0200 0.7148
vn 0.0694 0.3379 -0.9386
vn 0.0624 0.3546 -0.9329
vn 0.5405 0.2196 0.8122
vn 0.5403 0.2160 0.8132
vn -0.0976 0.6045 -0.7906
vn -0.0986 0.6041 -0.7908
vn 0.2667 0.7988 0.5392
vn 0.5311 0.1062 0.8406
vn -0.1108 0.8132 -0.5714
vn -0.1113 0.8103 -0.5754
vn -0.0804 0.9363 -0.3420
vn 0.8148 -0.3962 -0.4233
vn 0.8098 -0.3804 -0.4466
vn 0.8100 -0.3808 -0.4461
vn -0.4676 -0.7772 -0.4211
vn -0.2289 -0.8355 -0.4995
vn -0.9456 0.1755 0.2741
vn -0.9638 0.1166 0.2399
vn 0.8386 -0.2933 -0.4591
vn 0.8375 -0.2959 -0.4595
vn -0.9153 0.2466 0.3183
vn -0.9154 0.2466 0.3183
vn 0.8053 -0.3185 -0.5000
vn 0.8048 -0.3193 -0.5004
vn -0.8803 0.3047 0.3635
vn -0.8796 0.3058 0.3643
vn 0.8527 -0.2292 -0.4694
vn 0.8528 -0.2289 -0.4693
vn -0.8944 0.2923 0.3385
vn -0.8934 0.2937 0.3399
vn 0.9015 -0.1242 -0.4146
vn 0.9018 -0.1233 -0.4142
vn -0.9371 0.2669 0.2249
vn -0.9368 0.2642 0.2294
vn 0.8820 0.0389 -0.4696
vn 0.8826 0.0163 -0.4699
vn -0.8606 0.4953 0.1187
vn -0.8673 0.4824 0.1227
vn 0.4407 0.8622 -0.2498
vn 0.8457 0.2867 -0.4501
vn -0.6280 0.7761 0.0574
vn -0.6316 0.7732 0.0575
vn 0.0084 -0.8398 -0.5428
vn -0.4930 0.8685 0.0505
vn -0.7880 -0.0320 -0.6149
vn -0.7798 0.1401 -0.6102
vn -0.7818 0.1218 -0.6116
vn -0.0248 -0.7679 0.6401
vn 0.5689 -0.1402 0.8104
vn 0.5164 -0.3704 0.7721
vn 0.5649 -0.1649 0.8085
vn -0.8768 0.1578 -0.4541
vn -0.8691 0.1681 -0.4652
vn 0.5145 0.1193 0.8492
vn 0.5181 0.1171 0.8473
vn -0.9307 0.2173 -0.2941
vn -0.9322 0.2087 -0.2956
vn 0.4149 0.2769 0.8667
vn 0.4155 0.2742 0.8673
vn -0.9667 0.1524 -0.2055
vn -0.9616 0.1750 -0.2115
vn 0.3294 0.1814 0.9266
vn 0.3327 0.1919 0.9233
vn -0.9878 -0.0562 -0.1453
vn 0.2947 0.1156 0.9486
vn 0.2934 0.1104 0.9496
vn -0.7493 0.6369 -0.1814
vn -0.7967 0.5648 -0.2148
vn -0.7993 0.5604 -0.2168
vn 0.4567 0.4570 0.7633
vn 0.4631 0.4678 0.7528
vn -0.6891 0.6158 -0.3820
vn -0.4875 0.7184 -0.4962
vn -0.6921 0.6137 -0.3799
vn 0.5443 0.6171 0.5683
vn -0.8406 -0.4697 -0.2695
vn 0.4767 0.8787 0.0232
vn -0.8086 -0.3964 0.4349
vn -0.9131 -0.0624 0.4029
vn -0.9129 -0.0646 0.4031
vn -0.8138 -0.3861 0.4343
vn 0.5093 -0.8153 0.2756
vn 0.9850 -0.1697 0.0304
vn 0.9670 -0.2507 0.0456
vn 0.9849 -0.1706 0.0305
vn -0.9163 0.0327 0.3991
vn -0.9164 0.0331 0.3990
vn 0.9938 -0.1026 0.0432
vn 0.9938 -0.1025 0.0430
vn -0.9060 -0.0397 0.4214
vn 0.9963 0.0811 0.0290
vn 0.9968 0.0741 0.0305
vn -0.8558 0.4640 0.2289
vn -0.8892 0.3819 0.2521
vn -0.8905 0.3781 0.2531
vn 0.9803 0.1961 0.0239
vn 0.9804 0.1958 0.0240
vn -0.9392 0.2252 0.2591
vn -0.9405 0.2212 0.2581
vn 0.9955 0.0903 0.0279
vn 0.9957 0.0886 0.0263
vn -0.9538 0.2245 0.1997
vn -0.9531 0.2307 0.1960
vn 0.9931 0.1018 -0.0587
vn 0.9918 0.1089 -0.0668
vn -0.4155 0.8981 0.1441
vn -0.9480 0.2929 0.1246
vn -0.9485 0.2923 0.1222
vn 0.9579 0.2059 -0.2003
vn 0.9713 0.1786 -0.1571
vn 0.9698 0.1821 -0.1625
vn -0.7195 -0.5401 0.4367
vn 0.6275 0.7775 -0.0421
vn -0.9539 0.2855 0.0932
vt 0.500000 0.000000
vt 1.000000 0.000000
vt 1.000000 1.000000
vt 0.500000 1.000000
vt 0.500000 1.000000
vt 0.000000 1.000000
vt 0.000000 0.000000
vt 0.500000 1.000000
vt 1.000000 1.000000
s 1
usemtl material_algas.002
f 17/1/1 2/2/1 4/3/2 18/4/3
f 18/4/3 4/3/2 6/3/4 19/4/5
f 19/4/5 6/3/4 8/3/6 20/4/7
f 20/4/7 8/3/6 10/3/8 21/4/9
f 21/4/9 10/3/8 12/3/10 22/4/11
f 22/4/11 12/3/10 14/3/12 23/5/13
f 23/5/13 14/3/12 16/3/14 24/5/15
f 13/6/16 23/5/13 24/5/15 15/6/17
f 11/6/18 22/4/19 23/5/13 13/6/16
f 9/6/20 21/4/21 22/4/19 11/6/18
f 7/6/22 20/4/23 21/4/21 9/6/20
f 5/6/24 19/4/25 20/4/23 7/6/22
f 3/6/26 18/4/3 19/4/25 5/6/24
f 1/7/1 17/1/1 18/4/3 3/6/26
f 41/1/27 26/2/27 28/3/27 42/8/28
f 42/8/28 28/3/27 30/3/29 43/4/30
f 43/4/30 30/3/29 32/3/31 44/4/32
f 44/4/32 32/3/31 34/3/33 45/5/34
f 45/5/34 34/3/33 36/3/35 46/4/36
f 46/4/36 36/3/35 38/3/37 47/4/38
f 47/4/38 38/3/37 40/3/39 48/4/39
f 37/6/40 47/4/40 48/4/40 39/6/40
f 35/6/41 46/4/36 47/4/38 37/6/42
f 33/6/43 45/5/34 46/4/36 35/6/41
f 31/6/44 44/4/32 45/5/34 33/6/43
f 29/6/45 43/4/30 44/4/32 31/6/44
f 27/6/46 42/8/28 43/4/30 29/6/45
f 25/7/27 41/1/27 42/8/28 27/6/46
f 65/1/47 50/2/48 52/3/49 66/4/50
f 66/4/50 52/3/49 54/3/51 67/4/52
f 67/4/52 54/3/51 56/3/53 68/4/54
f 68/4/54 56/3/53 58/3/55 69/4/56
f 69/4/56 58/3/55 60/3/57 70/4/57
f 70/4/58 60/3/58 62/3/59 71/4/60
f 71/4/60 62/3/59 64/3/61 72/4/61
f 61/6/62 71/4/63 72/4/64 63/6/64
f 59/6/65 70/4/66 71/4/63 61/6/62
f 57/6/67 69/4/68 70/4/66 59/6/65
f 55/6/69 68/4/70 69/4/68 57/6/67
f 53/6/71 67/4/52 68/4/70 55/6/69
f 51/6/72 66/4/50 67/4/52 53/6/71
f 49/7/73 65/1/47 66/4/50 51/6/72
f 89/1/74 74/2/75 76/3/76 90/4/77
f 90/4/77 76/3/76 78/3/78 91/4/79
f 91/4/79 78/3/78 80/3/80 92/4/81
f 92/4/82 80/3/82 82/3/83 93/4/84
f 93/4/84 82/3/83 84/3/85 94/4/85
f 94/4/86 84/3/87 86/3/88 95/4/89
f 99/4/90 98/9/91 88/3/92 96/4/93
f 97/6/94 99/4/90 96/4/93 87/6/95
f 83/6/96 94/4/86 95/4/89 85/6/97
f 81/6/98 93/4/99 94/4/100 83/6/100
f 79/6/101 92/4/81 93/4/99 81/6/98
f 77/6/102 91/4/79 92/4/81 79/6/101
f 75/6/103 90/4/77 91/4/79 77/6/102
f 73/7/104 89/1/74 90/4/77 75/6/103
f 85/6/97 95/4/89 99/4/90 97/6/94
f 95/4/89 86/3/88 98/9/91 99/4/90
f 116/1/105 117/4/106 103/3/107 101/2/108
f 117/4/106 118/4/109 105/3/110 103/3/107
f 118/4/109 119/4/111 107/3/112 105/3/110
f 119/4/111 120/4/113 109/3/114 107/3/112
f 120/4/113 121/4/115 111/3/116 109/3/114
f 121/4/115 122/5/117 113/3/118 111/3/116
f 122/5/117 123/5/119 115/3/120 113/3/118
f 112/6/121 114/6/122 123/5/119 122/5/117
f 110/6/123 112/6/121 122/5/117 121/4/124
f 108/6/125 110/6/123 121/4/124 120/4/126
f 106/6/127 108/6/125 120/4/126 119/4/128
f 104/6/129 106/6/127 119/4/128 118/4/130
f 102/6/131 104/6/129 118/4/130 117/4/106
f 100/7/132 102/6/131 117/4/106 116/1/105
f 140/1/133 141/8/134 127/3/133 125/2/135
f 141/8/134 142/4/136 129/3/137 127/3/133
f 142/4/136 143/4/138 131/3/139 129/3/137
f 143/4/138 144/5/140 133/3/141 131/3/139
f 144/5/140 145/4/142 135/3/143 133/3/141
f 145/4/142 146/4/144 137/3/145 135/3/143
f 146/4/144 147/4/146 139/3/146 137/3/145
f 136/6/147 138/6/147 147/4/147 146/4/147
f 134/6/148 136/6/149 146/4/144 145/4/142
f 132/6/150 134/6/148 145/4/142 144/5/140
f 130/6/151 132/6/150 144/5/140 143/4/138
f 128/6/152 130/6/151 143/4/138 142/4/136
f 126/6/153 128/6/152 142/4/136 141/8/134
f 124/7/154 126/6/153 141/8/134 140/1/133
f 164/1/155 165/4/156 151/3/157 149/2/158
f 165/4/156 166/4/159 153/3/160 151/3/157
f 166/4/159 167/4/161 155/3/162 153/3/160
f 167/4/161 168/4/163 157/3/164 155/3/162
f 168/4/163 169/4/165 159/3/165 157/3/164
f 169/4/166 170/4/167 161/3/168 159/3/166
f 170/4/167 171/4/169 163/3/169 161/3/168
f 160/6/170 162/6/171 171/4/171 170/4/172
f 158/6/173 160/6/170 170/4/172 169/4/174
f 156/6/175 158/6/173 169/4/174 168/4/176
f 154/6/177 156/6/175 168/4/176 167/4/178
f 152/6/179 154/6/177 167/4/178 166/4/159
f 150/6/180 152/6/179 166/4/159 165/4/156
f 148/7/181 150/6/180 165/4/156 164/1/155
f 188/1/182 189/4/183 175/3/184 173/2/185
f 189/4/183 190/4/186 177/3/187 175/3/184
f 190/4/186 191/4/188 179/3/189 177/3/187
f 191/4/190 192/4/191 181/3/192 179/3/190
f 192/4/191 193/4/193 183/3/193 181/3/192
f 193/4/194 194/4/195 185/3/196 183/3/197
f 198/4/198 195/4/199 187/3/200 197/9/201
f 196/6/202 186/6/203 195/4/199 198/4/198
f 182/6/204 184/6/205 194/4/195 193/4/194
f 180/6/206 182/6/207 193/4/207 192/4/208
f 178/6/209 180/6/206 192/4/208 191/4/188
f 176/6/210 178/6/209 191/4/188 190/4/186
f 174/6/211 176/6/210 190/4/186 189/4/183
f 172/7/212 174/6/211 189/4/183 188/1/182
f 184/6/205 196/6/202 198/4/198 194/4/195
f 194/4/195 198/4/198 197/9/201 185/3/196
f 1/7/213 3/6/214 102/6/215 100/7/213
f 2/2/216 17/1/216 116/1/216 101/2/216
f 4/3/217 2/2/218 101/2/218 103/3/219
f 3/6/214 5/6/220 104/6/221 102/6/215
f 6/3/222 4/3/217 103/3/219 105/3/223
f 5/6/220 7/6/224 106/6/225 104/6/221
f 8/3/226 6/3/222 105/3/223 107/3/227
f 7/6/224 9/6/228 108/6/229 106/6/225
f 10/3/230 8/3/226 107/3/227 109/3/231
f 9/6/228 11/6/232 110/6/233 108/6/229
f 12/3/234 10/3/230 109/3/231 111/3/235
f 11/6/232 13/6/236 112/6/237 110/6/233
f 14/3/238 12/3/234 111/3/235 113/3/239
f 15/6/240 24/5/240 123/5/240 114/6/240
f 13/6/236 15/6/241 114/6/241 112/6/237
f 16/3/242 14/3/238 113/3/239 115/3/243
f 17/1/216 1/7/216 100/7/216 116/1/216
f 24/5/244 16/3/242 115/3/243 123/5/244
f 25/7/245 27/6/246 126/6/247 124/7/245
f 26/2/248 41/1/249 140/1/249 125/2/248
f 28/3/250 26/2/251 125/2/251 127/3/250
f 27/6/246 29/6/252 128/6/253 126/6/247
f 30/3/254 28/3/250 127/3/250 129/3/255
f 29/6/252 31/6/256 130/6/257 128/6/253
f 32/3/258 30/3/254 129/3/255 131/3/259
f 31/6/256 33/6/260 132/6/261 130/6/257
f 34/3/262 32/3/258 131/3/259 133/3/263
f 33/6/260 35/6/264 134/6/265 132/6/261
f 36/3/266 34/3/262 133/3/263 135/3/267
f 35/6/264 37/6/268 136/6/269 134/6/265
f 38/3/270 36/3/266 135/3/267 137/3/271
f 39/6/272 48/4/272 147/4/272 138/6/272
f 37/6/268 39/6/273 138/6/273 136/6/269
f 40/3/274 38/3/270 137/3/271 139/3/275
f 41/1/249 25/7/276 124/7/276 140/1/249
f 48/4/277 40/3/274 139/3/275 147/4/277
f 49/7/278 51/6/279 150/6/280 148/7/278
f 50/2/281 65/1/281 164/1/281 149/2/281
f 52/3/282 50/2/283 149/2/283 151/3/284
f 51/6/279 53/6/285 152/6/286 150/6/280
f 54/3/287 52/3/282 151/3/284 153/3/288
f 53/6/285 55/6/289 154/6/290 152/6/286
f 56/3/291 54/3/287 153/3/288 155/3/292
f 55/6/289 57/6/293 156/6/294 154/6/290
f 58/3/295 56/3/291 155/3/292 157/3/296
f 57/6/293 59/6/297 158/6/297 156/6/294
f 60/3/298 58/3/295 157/3/296 159/3/299
f 59/6/300 61/6/301 160/6/302 158/6/300
f 62/3/303 60/3/298 159/3/299 161/3/304
f 63/6/305 72/4/306 171/4/306 162/6/307
f 61/6/301 63/6/305 162/6/307 160/6/302
f 64/3/308 62/3/303 161/3/304 163/3/308
f 65/1/309 49/7/309 148/7/309 164/1/309
f 72/4/310 64/3/310 163/3/310 171/4/310
f 73/7/311 75/6/312 174/6/313 172/7/314
f 74/2/315 89/1/315 188/1/315 173/2/315
f 76/3/316 74/2/317 173/2/317 175/3/318
f 75/6/312 77/6/319 176/6/320 174/6/313
f 78/3/321 76/3/316 175/3/318 177/3/322
f 77/6/319 79/6/323 178/6/323 176/6/320
f 80/3/324 78/3/321 177/3/322 179/3/325
f 79/6/326 81/6/327 180/6/328 178/6/326
f 82/3/329 80/3/324 179/3/325 181/3/330
f 81/6/327 83/6/331 182/6/332 180/6/328
f 84/3/333 82/3/329 181/3/330 183/3/334
f 83/6/331 85/6/335 184/6/336 182/6/332
f 86/3/337 84/3/333 183/3/334 185/3/338
f 87/6/339 96/4/339 195/4/339 186/6/339
f 85/6/335 97/6/340 196/6/341 184/6/336
f 88/3/342 98/9/343 197/9/344 187/3/342
f 89/1/345 73/7/311 172/7/314 188/1/345
f 96/4/346 88/3/346 187/3/346 195/4/346
f 97/6/340 87/6/347 186/6/347 196/6/341
f 98/9/343 86/3/337 185/3/338 197/9/344
