# Blender 3.6.17
# www.blender.org
mtllib modelo_flecha.mtl
o Cylinder
v -0.000364 0.995203 -2.086460
v 0.000000 0.697565 1.861712
v 0.443085 0.889036 -2.071760
v 0.266946 0.644466 1.861712
v 0.737602 0.694105 -2.044771
v 0.493253 0.493253 1.861712
v 0.957451 0.345245 -1.996469
v 0.644466 0.266946 1.861712
v 1.038361 0.001936 -1.948936
v 0.697564 0.000000 1.861712
v 0.957451 -0.400983 -1.893150
v 0.644466 -0.266946 1.861712
v 0.751236 -0.742562 -1.845856
v 0.493253 -0.493252 1.861712
v 0.406398 -0.970796 -1.814256
v 0.266946 -0.644465 1.861712
v 0.146540 -0.997523 -1.810555
v 0.079011 -0.652531 1.861712
v -0.175538 -0.985268 -1.812252
v -0.136088 -0.684160 1.861712
v -0.448634 -0.819368 -1.835222
v -0.283641 -0.571724 1.861712
v -0.774371 -0.532850 -1.874892
v -0.506758 -0.383049 1.861712
v -0.914050 -0.211987 -1.919317
v -0.628683 -0.136087 1.861712
v -0.949364 0.069907 -1.958347
v -0.662020 0.013226 1.861712
v -0.912332 0.396339 -2.003544
v -0.644466 0.266946 1.861712
v -0.751964 0.686823 -2.043763
v -0.493253 0.493253 1.861712
v -0.407127 0.915058 -2.075363
v -0.266946 0.644466 1.861712
v -0.233313 1.514353 1.289006
v 0.297313 1.584926 1.142384
v 0.581992 1.498569 1.142384
v 0.844355 1.358334 1.142384
v 1.237579 1.069877 1.142384
v 1.403507 0.857681 1.142384
v 1.543743 0.625210 1.142384
v 1.630100 0.372964 1.142384
v 1.659259 0.110637 1.142384
v 1.599128 -0.299242 1.142384
v 1.403278 -0.583921 1.142384
v 1.263042 -0.846284 1.142384
v 1.074317 -1.076246 1.142384
v 0.844355 -1.264972 1.142384
v 0.581992 -1.405207 1.142384
v 0.297313 -1.491564 1.142384
v 0.001256 -1.520723 1.142384
v -0.294801 -1.491564 1.142384
v -0.579481 -1.405207 1.142384
v -0.841843 -1.264972 1.142384
v -1.071806 -1.076246 1.142384
v -1.260531 -0.846284 1.142384
v -1.446661 -0.583921 1.142384
v -1.533018 -0.299242 1.142384
v -1.602392 0.027060 1.142384
v -1.576251 0.292480 1.142384
v -1.498830 0.547700 1.142384
v -1.306425 0.839914 1.142384
v -1.071806 1.069877 1.142384
v -0.876518 1.258602 1.142384
v -0.729110 1.423249 1.177853
v -0.529370 1.485194 1.289006
v 0.000000 0.000001 4.199326
v -0.611503 -0.676109 -1.855057
v -0.395200 -0.477386 1.861712
v -0.003290 0.784338 -0.434162
v 0.309258 0.714174 -0.440258
v 0.538402 0.562046 -0.455949
v 0.701655 0.309010 -0.480320
v 0.760614 0.040812 -0.508009
v 0.701655 -0.253851 -0.536623
v 0.544400 -0.503655 -0.560880
v 0.293117 -0.670568 -0.577088
v 0.096105 -0.685932 -0.578179
v -0.140234 -0.694210 -0.580638
v -0.325304 -0.571790 -0.568645
v -0.566780 -0.362753 -0.548394
v -0.681875 -0.113187 -0.522728
v -0.712080 0.076724 -0.505846
v -0.688064 0.331694 -0.479527
v -0.550979 0.558813 -0.456062
v -0.299697 0.725726 -0.439854
v -0.446042 -0.467271 -0.558520
vn -0.3781 0.9219 0.0848
vn 0.0118 0.9975 0.0698
vn 0.0041 0.9918 0.1274
vn -0.3710 0.9193 0.1314
vn 0.3892 0.9179 0.0778
vn 0.3927 0.9102 0.1312
vn 0.7122 0.6963 0.0896
vn 0.9147 0.3869 0.1171
vn 0.8961 0.4134 0.1616
vn 0.6898 0.7091 0.1457
vn 0.9930 0.0165 0.1168
vn 0.9814 0.0257 0.1900
vn 0.9224 -0.3623 0.1335
vn 0.9223 -0.3250 0.2090
vn 0.7133 -0.6861 0.1430
vn 0.7005 -0.6728 0.2382
vn 0.3209 -0.9288 0.1851
vn 0.2677 -0.9634 0.0146
vn 0.0900 -0.9959 0.0108
vn 0.0427 -0.9910 0.1270
vn 0.2841 -0.9247 0.2532
vn -0.2680 -0.9500 0.1605
vn -0.2427 -0.9418 0.2325
vn 0.0576 -0.9686 0.2417
vn -0.6053 -0.7884 0.1096
vn -0.5896 -0.7805 0.2079
vn -0.6560 -0.7473 0.1063
vn -0.7980 -0.5949 0.0968
vn -0.7931 -0.5762 0.1973
vn -0.6405 -0.7408 0.2023
vn -0.9547 -0.2879 0.0753
vn -0.9571 -0.2322 0.1732
vn -0.9899 -0.0317 0.1382
vn -0.9998 -0.0060 0.0202
vn -0.9570 0.2887 0.0265
vn -0.9363 0.3372 0.0980
vn -0.7175 0.6925 0.0748
vn -0.7215 0.6766 0.1470
vn -0.9411 0.2997 0.1563
vn -0.0000 -0.0000 1.0000
vn -0.0000 -0.1371 -0.9906
vn -0.0359 0.8853 0.4636
vn -0.0063 -0.0127 0.9999
vn 0.1496 0.8718 0.4665
vn 0.3382 0.8180 0.4654
vn 0.4720 0.7499 0.4636
vn 0.6164 0.6314 0.4705
vn 0.7259 0.4990 0.4733
vn 0.7967 0.3699 0.4780
vn 0.8561 0.1918 0.4799
vn 0.8790 -0.0127 0.4767
vn 0.8283 -0.3141 0.4640
vn 0.7656 -0.4685 0.4409
vn 0.7445 -0.4975 0.4453
vn 0.6331 -0.6331 0.4454
vn 0.4974 -0.7444 0.4454
vn 0.3426 -0.8272 0.4455
vn 0.1747 -0.8781 0.4454
vn -0.0000 -0.8953 0.4454
vn -0.1746 -0.8782 0.4453
vn -0.3426 -0.8273 0.4452
vn -0.4975 -0.7446 0.4451
vn -0.6332 -0.6333 0.4450
vn -0.7124 -0.5433 0.4442
vn -0.8014 -0.3897 0.4537
vn -0.8628 -0.2215 0.4544
vn -0.8849 -0.0466 0.4634
vn -0.8687 0.1725 0.4644
vn -0.8046 0.3738 0.4615
vn -0.6911 0.5651 0.4506
vn -0.6250 0.6422 0.4439
vn -0.6716 0.5973 0.4385
vn -0.6301 0.6327 0.4501
vn -0.0023 0.0134 -0.9999
vn -0.3271 0.8163 0.4761
vn -0.9868 0.0478 0.1548
vn -0.6137 -0.7895 0.0090
vn -0.6500 -0.7599 0.0105
vn -0.9568 -0.2903 0.0179
vn 0.3942 0.9183 0.0357
vn 0.7045 0.7089 0.0346
vn -0.7266 0.6861 0.0364
vn -0.3822 0.9233 0.0380
vn -0.7848 -0.6196 0.0147
vn -0.2241 -0.9745 0.0058
vn 0.6996 -0.7143 0.0180
vn 0.9313 -0.3636 0.0207
vn 0.9996 -0.0079 0.0266
vn 0.9163 0.3993 0.0302
vn -0.0054 0.9993 0.0378
vt 0.062500 0.750000
vt 0.000000 0.750000
vt 0.000000 0.500000
vt 0.062500 0.500000
vt 1.000000 0.750000
vt 0.937500 0.750000
vt 0.937500 0.500000
vt 1.000000 0.500000
vt 0.875000 0.750000
vt 0.812500 0.750000
vt 0.812500 0.500000
vt 0.875000 0.500000
vt 0.750000 0.750000
vt 0.750000 0.500000
vt 0.687500 0.750000
vt 0.687500 0.500000
vt 0.625000 0.750000
vt 0.625000 0.500000
vt 0.562500 0.750000
vt 0.562500 1.000000
vt 0.531250 1.000000
vt 0.531250 0.750000
vt 0.562500 0.500000
vt 0.468750 0.750000
vt 0.468750 0.500000
vt 0.531250 0.500000
vt 0.406250 0.750000
vt 0.406250 0.500000
vt 0.375000 0.750000
vt 0.343750 0.750000
vt 0.343750 0.500000
vt 0.375000 0.500000
vt 0.281250 0.750000
vt 0.281250 0.500000
vt 0.218750 0.750000
vt 0.218750 1.000000
vt 0.187500 1.000000
vt 0.187500 0.750000
vt 0.125000 0.750000
vt 0.125000 0.500000
vt 0.187500 0.500000
vt 0.250000 0.490000
vt 0.158156 0.471731
vt 0.080294 0.419706
vt 0.028269 0.341844
vt 0.014612 0.296822
vt 0.014612 0.203178
vt 0.050447 0.116663
vt 0.083555 0.083555
vt 0.116663 0.050447
vt 0.203178 0.014612
vt 0.296822 0.014612
vt 0.341844 0.028269
vt 0.419706 0.080294
vt 0.471731 0.158156
vt 0.490000 0.250000
vt 0.471731 0.341844
vt 0.419706 0.419706
vt 0.341844 0.471731
vt 0.750000 0.490000
vt 0.841844 0.471731
vt 0.919706 0.419706
vt 0.971731 0.341844
vt 0.990000 0.250000
vt 0.971731 0.158156
vt 0.919706 0.080294
vt 0.841844 0.028269
vt 0.796822 0.014612
vt 0.703178 0.014612
vt 0.616663 0.050447
vt 0.583555 0.083555
vt 0.550447 0.116663
vt 0.514612 0.203178
vt 0.514612 0.296822
vt 0.528269 0.341844
vt 0.580294 0.419706
vt 0.658156 0.471731
vt 0.250000 0.250000
vt 0.296822 0.485388
vt 0.383337 0.449553
vt 0.449553 0.383337
vt 0.485388 0.296822
vt 0.485388 0.203178
vt 0.449553 0.116663
vt 0.383337 0.050447
vt 0.250000 0.010000
vt 0.158156 0.028269
vt 0.080294 0.080294
vt 0.028269 0.158156
vt 0.010000 0.250000
vt 0.050447 0.383337
vt 0.116663 0.449553
vt 0.796822 0.485388
vt 0.883337 0.449553
vt 0.949553 0.383337
vt 0.985388 0.296822
vt 0.985388 0.203178
vt 0.949553 0.116663
vt 0.883337 0.050447
vt 0.750000 0.010000
vt 0.658156 0.028269
vt 0.580294 0.080294
vt 0.528269 0.158156
vt 0.510000 0.250000
vt 0.550447 0.383337
vt 0.616663 0.449553
vt 0.703178 0.485388
vt 0.203178 0.485388
vt 0.218750 0.500000
vt 0.406250 1.000000
vt 0.375000 1.000000
vt 0.281250 1.000000
vt 0.937500 1.000000
vt 0.875000 1.000000
vt 0.125000 1.000000
vt 0.062500 1.000000
vt 0.343750 1.000000
vt 0.468750 1.000000
vt 0.625000 1.000000
vt 0.687500 1.000000
vt 0.750000 1.000000
vt 0.812500 1.000000
vt 1.000000 1.000000
vt 0.000000 1.000000
s 1
f 86/1/1 70/2/2 1/3/3 33/4/4
f 70/5/2 71/6/5 3/7/6 1/8/3
f 72/9/7 73/10/8 7/11/9 5/12/10
f 73/10/8 74/13/11 9/14/12 7/11/9
f 74/13/11 75/15/13 11/16/14 9/14/12
f 75/15/13 76/17/15 13/18/16 11/16/14
f 77/19/17 16/20/18 18/21/19 78/22/20
f 76/17/15 77/19/17 15/23/21 13/18/16
f 78/22/20 79/24/22 19/25/23 17/26/24
f 79/24/22 80/27/25 21/28/26 19/25/23
f 87/29/27 81/30/28 23/31/29 68/32/30
f 81/30/28 82/33/31 25/34/32 23/31/29
f 83/35/33 28/36/34 30/37/35 84/38/36
f 84/38/36 85/39/37 31/40/38 29/41/39
f 2/42/40 34/43/40 32/44/40 30/45/40 28/46/40 26/47/40 24/48/40 69/49/40 22/50/40 20/51/40 18/52/40 16/53/40 14/54/40 12/55/40 10/56/40 8/57/40 6/58/40 4/59/40
f 85/39/37 86/1/1 33/4/4 31/40/38
f 1/60/41 3/61/41 5/62/41 7/63/41 9/64/41 11/65/41 13/66/41 15/67/41 17/68/41 19/69/41 21/70/41 68/71/41 23/72/41 25/73/41 27/74/41 29/75/41 31/76/41 33/77/41
f 35/42/42 67/78/43 36/79/44
f 36/79/44 67/78/43 37/59/45
f 37/59/45 67/78/43 38/80/46
f 38/80/46 67/78/43 39/58/47
f 39/58/47 67/78/43 40/81/48
f 40/81/48 67/78/43 41/57/49
f 41/57/49 67/78/43 42/82/50
f 42/82/50 67/78/43 43/56/51
f 43/56/51 67/78/43 44/83/52
f 44/83/52 67/78/43 45/55/53
f 45/55/53 67/78/43 46/84/54
f 46/84/54 67/78/43 47/54/55
f 47/54/55 67/78/43 48/85/56
f 48/85/56 67/78/43 49/53/57
f 49/53/57 67/78/43 50/52/58
f 50/52/58 67/78/43 51/86/59
f 51/86/59 67/78/43 52/51/60
f 52/51/60 67/78/43 53/87/61
f 53/87/61 67/78/43 54/50/62
f 54/50/62 67/78/43 55/88/63
f 55/88/63 67/78/43 56/48/64
f 56/48/64 67/78/43 57/89/65
f 57/89/65 67/78/43 58/47/66
f 58/47/66 67/78/43 59/90/67
f 59/90/67 67/78/43 60/46/68
f 60/46/68 67/78/43 61/45/69
f 61/45/69 67/78/43 62/91/70
f 62/91/70 67/78/43 63/44/71
f 63/44/71 67/78/43 64/92/72
f 64/92/72 67/78/43 65/43/73
f 35/60/74 36/93/74 37/61/74 38/94/74 39/62/74 40/95/74 41/63/74 42/96/74 43/64/74 44/97/74 45/65/74 46/98/74 47/66/74 48/99/74 49/67/74 50/68/74 51/100/74 52/69/74 53/101/74 54/70/74 55/102/74 56/72/74 57/103/74 58/73/74 59/104/74 60/74/74 61/75/74 62/105/74 63/76/74 64/106/74 65/77/74 66/107/74
f 65/43/73 67/78/43 66/108/75
f 66/108/75 67/78/43 35/42/42
f 71/6/5 72/9/7 5/12/10 3/7/6
f 82/33/31 83/35/33 27/109/76 25/34/32
f 80/27/25 87/29/27 68/32/30 21/28/26
f 22/110/77 69/111/78 87/29/27 80/27/25
f 26/112/79 28/36/34 83/35/33 82/33/31
f 4/113/80 6/114/81 72/9/7 71/6/5
f 32/115/82 34/116/83 86/1/1 85/39/37
f 30/37/35 32/115/82 85/39/37 84/38/36
f 27/109/76 83/35/33 84/38/36 29/41/39
f 24/117/84 26/112/79 82/33/31 81/30/28
f 69/111/78 24/117/84 81/30/28 87/29/27
f 20/118/85 22/110/77 80/27/25 79/24/22
f 18/21/19 20/118/85 79/24/22 78/22/20
f 14/119/86 16/20/18 77/19/17 76/17/15
f 15/23/21 77/19/17 78/22/20 17/26/24
f 12/120/87 14/119/86 76/17/15 75/15/13
f 10/121/88 12/120/87 75/15/13 74/13/11
f 8/122/89 10/121/88 74/13/11 73/10/8
f 6/114/81 8/122/89 73/10/8 72/9/7
f 2/123/90 4/113/80 71/6/5 70/5/2
f 34/116/83 2/124/90 70/2/2 86/1/1
